REM DIRINDEX 1\2\6,1\2\7,1\2\8,1\3\9,1\3\10,1\3\11,1\4\12,1\4\13,1\4\14,1\5\15,1\5\16,1\5\17,1\5\18
REM DIRNAME folder01,folder02,folder03,folder04,folder05,folder06,folder07,folder08,folder09,folder10,folder11,folder12,folder13,folder14,folder15,folder16,folder17,folder18
TITLE ""
FILE "2Q_t_1162-1179.mp3" MP3
  TRACK 01 AUDIO
    TITLE "13:cjc019_4387"
    INDEX 01 00:00:00
  TRACK 02 AUDIO
    TITLE "0:"
    INDEX 01 00:01:05
  TRACK 03 AUDIO
    TITLE "14:cjc019_4388"
    INDEX 01 00:01:64
  TRACK 04 AUDIO
    TITLE "0:"
    INDEX 01 00:03:12
  TRACK 05 AUDIO
    TITLE "13:cjc019_4389"
    INDEX 01 00:03:68
  TRACK 06 AUDIO
    TITLE "0:"
    INDEX 01 00:04:72
  TRACK 07 AUDIO
    TITLE "14:cjc019_4390"
    INDEX 01 00:05:56
  TRACK 08 AUDIO
    TITLE "0:"
    INDEX 01 00:08:19
  TRACK 09 AUDIO
    TITLE "13:cjc019_4391"
    INDEX 01 00:08:72
  TRACK 10 AUDIO
    TITLE "0:"
    INDEX 01 00:10:19
  TRACK 11 AUDIO
    TITLE "14:cjc019_4392"
    INDEX 01 00:10:72
  TRACK 12 AUDIO
    TITLE "0:"
    INDEX 01 00:12:12
  TRACK 13 AUDIO
    TITLE "13:cjc019_4393"
    INDEX 01 00:12:71
  TRACK 14 AUDIO
    TITLE "0:"
    INDEX 01 00:14:02
  TRACK 15 AUDIO
    TITLE "14:cjc019_4394"
    INDEX 01 00:14:58
  TRACK 16 AUDIO
    TITLE "0:"
    INDEX 01 00:17:53
  TRACK 17 AUDIO
    TITLE "13:cjc019_4395"
    INDEX 01 00:18:31
  TRACK 18 AUDIO
    TITLE "0:"
    INDEX 01 00:19:40
  TRACK 19 AUDIO
    TITLE "14:cjc019_4396"
    INDEX 01 00:20:22
  TRACK 20 AUDIO
    TITLE "0:"
    INDEX 01 00:21:33
  TRACK 21 AUDIO
    TITLE "13:cjc019_4397"
    INDEX 01 00:22:11
  TRACK 22 AUDIO
    TITLE "0:"
    INDEX 01 00:23:34
  TRACK 23 AUDIO
    TITLE "14:cjc019_4398"
    INDEX 01 00:24:14
  TRACK 24 AUDIO
    TITLE "0:"
    INDEX 01 00:25:46
  TRACK 25 AUDIO
    TITLE "13:cjc019_4399"
    INDEX 01 00:26:22
  TRACK 26 AUDIO
    TITLE "0:"
    INDEX 01 00:27:49
  TRACK 27 AUDIO
    TITLE "14:cjc019_4400"
    INDEX 01 00:28:25
  TRACK 28 AUDIO
    TITLE "0:"
    INDEX 01 00:29:38
  TRACK 29 AUDIO
    TITLE "13:cjc019_4401"
    INDEX 01 00:30:20
  TRACK 30 AUDIO
    TITLE "0:"
    INDEX 01 00:31:37
  TRACK 31 AUDIO
    TITLE "14:cjc019_4402"
    INDEX 01 00:32:19
  TRACK 32 AUDIO
    TITLE "0:"
    INDEX 01 00:33:42
  TRACK 33 AUDIO
    TITLE "13:cjc019_4403"
    INDEX 01 00:34:20
  TRACK 34 AUDIO
    TITLE "0:"
    INDEX 01 00:35:55
  TRACK 35 AUDIO
    TITLE "14:cjc019_4404"
    INDEX 01 00:36:42
  TRACK 36 AUDIO
    TITLE "0:"
    INDEX 01 00:38:22
  TRACK 37 AUDIO
    TITLE "13:cjc019_4405"
    INDEX 01 00:39:03
  TRACK 38 AUDIO
    TITLE "0:"
    INDEX 01 00:40:17
  TRACK 39 AUDIO
    TITLE "14:cjc019_4406"
    INDEX 01 00:41:00
  TRACK 40 AUDIO
    TITLE "0:"
    INDEX 01 00:43:40
  TRACK 41 AUDIO
    TITLE "13:cjc019_4407"
    INDEX 01 00:44:20
  TRACK 42 AUDIO
    TITLE "0:"
    INDEX 01 00:45:37
  TRACK 43 AUDIO
    TITLE "14:cjc019_4408"
    INDEX 01 00:46:15
  TRACK 44 AUDIO
    TITLE "0:"
    INDEX 01 00:48:61
  TRACK 45 AUDIO
    TITLE "13:cjc019_4409"
    INDEX 01 00:49:43
  TRACK 46 AUDIO
    TITLE "0:"
    INDEX 01 00:51:15
  TRACK 47 AUDIO
    TITLE "14:cjc019_4410"
    INDEX 01 00:51:69
  TRACK 48 AUDIO
    TITLE "0:"
    INDEX 01 00:53:25
  TRACK 49 AUDIO
    TITLE "13:cjc019_4411"
    INDEX 01 00:54:01
  TRACK 50 AUDIO
    TITLE "0:"
    INDEX 01 00:55:12
  TRACK 51 AUDIO
    TITLE "14:cjc019_4412"
    INDEX 01 00:55:69
  TRACK 52 AUDIO
    TITLE "0:"
    INDEX 01 00:59:65
  TRACK 53 AUDIO
    TITLE "13:cjc019_4413"
    INDEX 01 01:00:45
  TRACK 54 AUDIO
    TITLE "0:"
    INDEX 01 01:01:66
  TRACK 55 AUDIO
    TITLE "14:cjc019_4414"
    INDEX 01 01:02:44
  TRACK 56 AUDIO
    TITLE "0:"
    INDEX 01 01:03:57
  TRACK 57 AUDIO
    TITLE "13:cjc019_4415"
    INDEX 01 01:04:33
  TRACK 58 AUDIO
    TITLE "0:"
    INDEX 01 01:05:48
  TRACK 59 AUDIO
    TITLE "14:cjc019_4416"
    INDEX 01 01:06:30
  TRACK 60 AUDIO
    TITLE "0:"
    INDEX 01 01:09:22
  TRACK 61 AUDIO
    TITLE "13:cjc019_4417"
    INDEX 01 01:09:73
  TRACK 62 AUDIO
    TITLE "0:"
    INDEX 01 01:11:19
  TRACK 63 AUDIO
    TITLE "14:cjc019_4418"
    INDEX 01 01:11:74
  TRACK 64 AUDIO
    TITLE "0:"
    INDEX 01 01:15:11
  TRACK 65 AUDIO
    TITLE "13:cjc019_4419"
    INDEX 01 01:15:66
  TRACK 66 AUDIO
    TITLE "0:"
    INDEX 01 01:17:24
  TRACK 67 AUDIO
    TITLE "14:cjc019_4420"
    INDEX 01 01:18:07
  TRACK 68 AUDIO
    TITLE "0:"
    INDEX 01 01:19:38
  TRACK 69 AUDIO
    TITLE "13:cjc019_4421"
    INDEX 01 01:20:16
  TRACK 70 AUDIO
    TITLE "0:"
    INDEX 01 01:21:29
  TRACK 71 AUDIO
    TITLE "14:cjc019_4422"
    INDEX 01 01:22:09
  TRACK 72 AUDIO
    TITLE "0:"
    INDEX 01 01:23:67
